<?xml version="1.0" encoding="UTF-8"?>
<svg width="210px" height="52px" viewBox="0 0 210 52" version="1.1" xmlns="http://www.w3.org/2000/svg" xmlns:xlink="http://www.w3.org/1999/xlink">
    <title>Logo Scaleway</title>
    <g id="Websites-Portal-Home-Corporate" stroke="none" stroke-width="1" fill="none" fill-rule="evenodd">
        <g id="Portal-Home---3-univers---V3" transform="translate(-201.000000, -63.000000)" fill="#510098" fill-rule="nonzero">
            <g id="Logo-Scaleway" transform="translate(201.000000, 63.000000)">
                <path d="M19.7457198,39.5691799 L28.1252918,39.5691799 C29.9647605,39.3460212 31.37509,37.8286655 31.4632296,35.977821 L31.4632296,23.892607 C31.4632296,22.288295 30.1626777,20.9877432 28.5583658,20.9877432 C26.9540538,20.9877432 25.6535019,22.288295 25.6535019,23.892607 L25.6535019,31.5735409 C25.653503,32.1528754 25.4230839,32.7084225 25.0130495,33.1176905 C24.603015,33.5269586 24.0470379,33.7563378 23.4677043,33.7552529 L19.672179,33.7552529 C18.8956818,33.757372 18.1522612,34.0698527 17.6074295,34.6231255 C17.0625978,35.1763982 16.7615826,35.9245348 16.7714008,36.7009728 C16.8158641,38.307676 18.1384623,39.5830385 19.7457198,39.5691799 L19.7457198,39.5691799 Z" id="Path"></path>
                <path d="M23.5208171,11.9747871 L15.1412451,11.9747871 C13.3024211,12.1960768 11.8917286,13.7120964 11.8033074,15.5620623 L11.8033074,27.6472763 C11.8033074,29.2515882 13.1038592,30.5521401 14.7081712,30.5521401 C16.3124832,30.5521401 17.613035,29.2515882 17.613035,27.6472763 L17.613035,19.970428 C17.613035,18.7632453 18.59165,17.7846304 19.7988327,17.7846304 L23.594358,17.7846304 C24.3715641,17.7836009 25.1160391,17.4716 25.6617563,16.9182075 C26.2074734,16.3648149 26.5090467,15.6160553 26.4992218,14.8389105 C26.4504,13.2331646 25.1272434,11.9608288 23.5208171,11.9747871 L23.5208171,11.9747871 Z" id="Path"></path>
                <path d="M24.922179,6.12840248 C31.7382685,6.13516108 37.2621152,11.6590078 37.2688716,18.4750973 L37.2688716,42.2206226 L37.2688716,42.2206226 C36.9883409,43.8702378 35.6606255,45.1415253 34.0003891,45.3501946 L18.2299611,45.3501946 C11.4097489,45.3479396 5.88143787,39.8196285 5.87918069,32.9994163 L5.87918069,9.94844358 C5.87809721,8.93497383 6.2802158,7.96270107 6.99684754,7.24606933 C7.71347928,6.52943759 8.68575204,6.127319 9.69922179,6.12840248 L24.922179,6.12840248 M24.922179,0.318660471 L9.69922179,0.318660471 C4.38018729,0.318660471 0.0676253896,4.62940956 0.0653696498,9.94844358 L0.0653696498,32.9953307 C0.0653696498,43.0273576 8.19793425,51.1599222 18.2299611,51.1599222 L34.3190661,51.1599222 C38.9210243,50.7829244 42.6070118,47.1912295 43.1031128,42.6005837 L43.1031128,42.6005837 L43.1031128,18.4750973 C43.1031128,13.655465 41.1868495,9.03358959 37.7765565,5.62789476 C34.3662635,2.22219992 29.7418069,0.312169888 24.922179,0.318660471 Z" id="Shape"></path>
                <path d="M65.3696498,39.9040856 C63.3710241,39.8882594 61.4068756,39.3817897 59.6498054,38.4291829 C57.8325141,37.4788816 56.2573259,36.1245272 55.0453307,34.4702335 C54.7386365,34.0553911 54.8007818,33.4747766 55.1883268,33.1342412 L57.3945525,31.181323 C57.5752384,31.0194169 57.8097267,30.9305735 58.0523346,30.9321012 L58.1953307,30.9321012 C58.4836285,30.9730153 58.7392318,31.1389332 58.8939689,31.3856031 C59.6452071,32.5930145 60.673172,33.6041734 61.8928016,34.3354086 C63.0569162,35.0403054 64.3928074,35.4106794 65.7536965,35.4058366 C67.2163424,35.4058366 68.311284,35.1035019 69.022179,34.5070039 C69.6970329,33.925758 70.0625648,33.0632841 70.0108949,32.1741245 C70.0796316,31.221224 69.6877097,30.2930679 68.9568093,29.677821 C68.1151751,29.0077821 66.7097276,28.3949416 64.781323,27.855642 C59.1105058,26.4624514 56.2342412,23.7700389 56.2342412,19.8070039 C56.2342412,17.355642 57.0513619,15.4354086 58.6856031,14.0871595 C60.3198444,12.7389105 62.4361868,12.12607 65.1449416,12.12607 C66.9674096,12.0994592 68.7730721,12.4776157 70.4317121,13.2332685 C72.070874,14.0266336 73.5073478,15.1836378 74.6317121,16.6161479 C74.9694921,17.0365579 74.9134876,17.6489947 74.5050584,18.0011673 L72.3682879,19.8110895 C72.1889208,19.962926 71.9618491,20.0468124 71.7268482,20.0480545 L71.6083658,20.0480545 C71.3324611,20.0139736 71.0834852,19.8657737 70.9219844,19.6394942 C70.2578504,18.6853661 69.39335,17.8877947 68.3889105,17.3025292 C67.3856706,16.7919492 66.2701372,16.5418674 65.1449416,16.5752918 C64.0335048,16.5217971 62.9344815,16.8284346 62.011284,17.4496109 C61.3276192,17.9290307 60.9350119,18.7234832 60.9694553,19.5577821 C60.9261646,20.4088492 61.2883329,21.2301681 61.9459144,21.772179 C62.7140078,22.4054475 64.0990272,22.9651751 66.0642023,23.4350195 C68.7280156,24.15 70.82393,25.1550584 72.3192607,26.4297665 C73.9289883,27.8025292 74.7461089,29.7350195 74.7461089,32.1782101 C74.7627891,33.6224331 74.3426784,35.0379923 73.540856,36.2392996 C72.71424,37.4472777 71.5586809,38.3929929 70.2110895,38.9643969 C68.6813767,39.6148079 67.0316062,39.9350165 65.3696498,39.9040856 Z" id="Path"></path>
                <path d="M86.5289883,40.0021401 C84.8061389,40.0300188 83.1092113,39.580333 81.6262646,38.7029183 C80.1925277,37.8342792 79.0273019,36.585621 78.2597276,35.0953307 C77.4453407,33.5103952 77.03286,31.7496357 77.0585603,29.9678988 C77.0319966,28.1897573 77.4371608,26.4317092 78.2392996,24.8445525 C79.0011274,23.3523593 80.1678556,22.1049228 81.6058366,21.2451362 C83.0715231,20.3688937 84.7520634,19.9176374 86.4595331,19.9418288 C87.887782,19.914836 89.2976191,20.2672953 90.5451362,20.9632296 C91.7450402,21.6662949 92.797957,22.5943598 93.6461089,23.6964981 C93.9804891,24.1316641 93.9021255,24.754928 93.470428,25.0937743 L91.6645914,26.507393 C91.4887327,26.642257 91.2733689,26.7154807 91.051751,26.7157588 C91.0014497,26.7199652 90.950885,26.7199652 90.9005837,26.7157588 C90.6309364,26.6764523 90.3889687,26.5289111 90.2305447,26.3071984 C89.2377432,24.8690661 88.0038911,24.170428 86.4595331,24.170428 C85.5676626,24.1545535 84.6908834,24.4018138 83.938716,24.881323 C83.1773004,25.378176 82.5690412,26.0769668 82.1819066,26.8996109 C81.308326,28.8490183 81.308326,31.0786082 82.1819066,33.0280156 C82.5624215,33.8614631 83.1716179,34.5698311 83.938716,35.0708171 C84.6908834,35.5503263 85.5676626,35.7975865 86.4595331,35.7817121 C87.282122,35.8160003 88.1007808,35.6505864 88.8455253,35.2996109 C89.5133354,34.9299344 90.0953479,34.4231102 90.5533074,33.8124514 C90.8792887,33.3946659 91.4751575,33.3049266 91.9097276,33.6081712 L93.8258755,34.948249 C94.0530362,35.1058366 94.2041972,35.3510088 94.2429703,35.6247468 C94.2817434,35.8984848 94.2046164,36.1759925 94.0301556,36.3904669 C93.1432736,37.4930736 92.0282541,38.3906643 90.7616732,39.0215953 C89.447897,39.6778014 87.9974836,40.0138045 86.5289883,40.0021401 Z" id="Path"></path>
                <path d="M104.889689,40.0021401 C103.182983,40.0245692 101.503271,39.5749493 100.035992,38.7029183 C98.601303,37.8354519 97.4357939,36.5864901 96.6694553,35.0953307 C95.0750993,31.8588701 95.0675576,28.0669014 96.6490272,24.8241245 C97.4085726,23.3475286 98.5607632,22.1091003 99.9787938,21.2451362 C101.439145,20.3704245 103.114022,19.9191695 104.816148,19.9418288 C106.159291,19.924606 107.485775,20.2404358 108.677043,20.8610895 C109.070125,21.0688991 109.445851,21.3079973 109.800584,21.57607 L109.800584,21.5066148 C109.800584,20.9560492 110.246905,20.5097276 110.797471,20.5097276 L113.248833,20.5097276 C113.799398,20.5097276 114.24572,20.9560492 114.24572,21.5066148 L114.24572,38.4291829 C114.24572,38.9797485 113.799398,39.42607 113.248833,39.42607 L110.797471,39.42607 C110.246905,39.42607 109.800584,38.9797485 109.800584,38.4291829 L109.800584,38.3678988 C109.451702,38.6304544 109.08288,38.8654077 108.697471,39.0706226 C107.526479,39.6957154 106.217005,40.016059 104.889689,40.0021401 Z M104.816148,24.1663424 C103.933434,24.1475384 103.065345,24.3937342 102.32393,24.8731518 C101.56932,25.3719572 100.964809,26.0668626 100.575292,26.8832685 C100.126528,27.8356429 99.9028619,28.8784865 99.9215953,29.9311284 C99.9006059,31.002823 100.125633,32.0650609 100.579377,33.0361868 C100.959363,33.8662631 101.563563,34.5737579 102.32393,35.0789883 C103.06607,35.5568012 103.933659,35.802855 104.816148,35.7857977 C105.719979,35.8050476 106.60948,35.557806 107.373735,35.0749027 C108.140833,34.5739167 108.75003,33.8655487 109.130545,33.0321012 C110.004125,31.0826938 110.004125,28.8531039 109.130545,26.9036965 C108.741788,26.0821117 108.133878,25.383722 107.373735,24.8854086 C106.610376,24.3996323 105.72081,24.1495309 104.816148,24.1663424 L104.816148,24.1663424 Z" id="Shape"></path>
                <rect id="Rectangle" x="117.43249" y="12.1301556" width="4.45330739" height="27.2101167" rx="0.99688716"></rect>
                <path d="M161.381323,39.4260744 C160.946912,39.4256478 160.56236,39.145074 160.429377,38.7315175 L157.222179,28.627821 L153.753502,38.7519455 C153.612381,39.156641 153.230149,39.4273201 152.801556,39.4260744 L150.350195,39.4260744 C149.920565,39.4245513 149.540238,39.1479497 149.40642,38.7396887 L143.81323,21.8171206 C143.665464,21.3732764 143.847581,20.8864985 144.250389,20.6486381 C144.412709,20.5542025 144.597845,20.5061521 144.785603,20.5095417 L147.363619,20.5095417 C147.79434,20.5118254 148.175003,20.7903187 148.307393,21.2001946 L151.706615,31.736965 L155.163035,21.1961089 C155.295765,20.7870578 155.676763,20.5099689 156.106809,20.5095417 L158.521401,20.5095417 C158.955585,20.5080083 159.340084,20.789754 159.469261,21.2042802 L162.790856,31.6184825 L166.141051,21.2001946 C166.274145,20.7837396 166.664008,20.5033704 167.101167,20.5095417 L169.434047,20.5095417 C169.566674,20.5078618 169.698429,20.5314391 169.822179,20.5791829 C170.304846,20.774585 170.555812,21.3085535 170.398249,21.8048638 L164.903113,38.7274319 C164.770256,39.1387357 164.387482,39.4175668 163.955253,39.4178988 L161.381323,39.4260744 Z" id="Path"></path>
                <path d="M180.403891,40.0021401 C178.695829,40.0251116 177.014659,39.5754799 175.546109,38.7029183 C174.112372,37.8342792 172.947146,36.585621 172.179572,35.0953307 C170.590766,31.8575738 170.583229,28.0681756 172.159144,24.8241245 C172.918689,23.3475286 174.07088,22.1091003 175.488911,21.2451362 C176.950532,20.3698918 178.626868,19.9186248 180.33035,19.9418288 C181.669034,19.930917 182.989678,20.2509032 184.174903,20.8733463 C184.567671,21.0816962 184.943354,21.3207677 185.298444,21.5883268 L185.298444,21.5188716 C185.29514,21.2509407 185.399835,20.9929603 185.588921,20.8031063 C185.778006,20.6132522 186.03556,20.5075109 186.303502,20.5097276 L188.754864,20.5097276 C189.305429,20.5097276 189.751751,20.9560492 189.751751,21.5066148 L189.751751,38.4291829 C189.749512,38.9788184 189.304499,39.4238312 188.754864,39.42607 L186.303502,39.42607 C185.753866,39.4238312 185.308854,38.9788184 185.306615,38.4291829 L185.306615,38.3678988 C184.959146,38.6304245 184.591684,38.8653817 184.207588,39.0706226 C183.037624,39.6945559 181.729766,40.0148476 180.403891,40.0021401 Z M180.33035,24.1663424 C179.446604,24.1494602 178.57776,24.395467 177.834047,24.8731518 C177.079562,25.3709464 176.476136,26.066228 176.089494,26.8832685 C175.637496,27.8346871 175.412335,28.8779786 175.431712,29.9311284 C175.410723,31.002823 175.635749,32.0650609 176.089494,33.0361868 C176.469479,33.8662631 177.07368,34.5737579 177.834047,35.0789883 C178.57776,35.5566731 179.446604,35.8026799 180.33035,35.7857977 C181.23289,35.8049687 182.121061,35.5577018 182.883852,35.0749027 C183.652,34.5751158 184.261489,33.8664072 184.640661,33.0321012 C185.514242,31.0826938 185.514242,28.8531039 184.640661,26.9036965 C184.253527,26.0810524 183.645268,25.3822616 182.883852,24.8854086 C182.121958,24.3997361 181.233722,24.1496089 180.33035,24.1663424 L180.33035,24.1663424 Z" id="Shape"></path>
                <path d="M140.083074,33.4488327 C139.617509,33.1204367 138.977906,33.2039404 138.612257,33.640856 C138.163443,34.2080103 137.62362,34.6967507 137.014786,35.0871595 C136.054135,35.5735574 134.985796,35.8083109 133.909728,35.7694553 C132.584134,35.8409517 131.301183,35.2893886 130.441051,34.2782101 C129.75681,33.471552 129.296148,32.4995125 129.105058,31.459144 L141.905253,31.459144 C142.418047,31.461267 142.847355,31.0709867 142.893969,30.5603113 C142.922568,30.2824903 142.934825,29.894358 142.934825,29.4122568 C142.953363,27.7451747 142.552988,26.1001252 141.770428,24.6280156 C141.009711,23.2106964 139.880493,22.0250181 138.501946,21.1961089 C137.103458,20.3523718 135.498007,19.9138785 133.864786,19.929572 C132.162896,19.9115847 130.48951,20.3670626 129.031518,21.2451362 C127.607764,22.1164855 126.454778,23.3670869 125.701751,24.8568093 C124.902409,26.4448212 124.49873,28.202507 124.525097,29.9801556 C124.497967,31.7615674 124.90905,33.522348 125.722179,35.1075875 C126.489753,36.5978778 127.654979,37.8465361 129.088716,38.7151751 C130.571663,39.5925898 132.26859,40.0422756 133.99144,40.0143969 C135.767872,40.0656826 137.527314,39.6560847 139.098444,38.8254864 C140.259311,38.1807388 141.27904,37.3096624 142.097276,36.2638132 C142.281223,36.0251436 142.359528,35.7216138 142.313998,35.4237436 C142.268469,35.1258735 142.103069,34.859594 141.856226,34.6867704 L140.083074,33.4488327 Z M130.7393,25.3756809 C131.571723,24.5472027 132.711715,24.10305 133.885214,24.15 C135.249805,24.15 136.279377,24.4931907 137.035214,25.2 C137.643103,25.8168729 138.067472,26.5906394 138.260895,27.4348249 L129.411479,27.4348249 C129.692197,26.6566267 130.146259,25.952481 130.7393,25.3756809 Z" id="Shape"></path>
                <path d="M209.754864,20.938716 C209.565509,20.6773138 209.260478,20.5247982 208.937743,20.5301556 L206.625292,20.5301556 C206.214327,20.5311305 205.846076,20.7842012 205.69786,21.1675097 L200.913619,33.5019455 L196.370428,21.1348249 C196.222013,20.7546201 195.855226,20.504686 195.447082,20.5056393 L192.877237,20.5056393 C192.548438,20.5077038 192.242176,20.6730853 192.060117,20.9468872 C191.875928,21.2207408 191.839213,21.5680032 191.962062,21.8743191 L198.629767,39.4424125 L198.629767,39.4424125 C198.523666,40.089421 198.178002,40.6728206 197.661479,41.0766537 C197.036381,41.485214 195.855642,41.5464981 195.210117,41.5873541 C194.63941,41.6218738 194.193916,42.0942044 194.192802,42.6659533 L194.192802,44.357393 C194.192799,44.6441646 194.306998,44.9191315 194.510159,45.1215259 C194.71332,45.3239204 194.988717,45.4370785 195.275486,45.4359922 C196.317315,45.4359922 197.988327,45.5381323 199.291634,44.8476654 C201.975875,43.4299611 202.376265,41.6731518 203.132101,39.6752918 L209.869261,21.8579767 C209.984458,21.5513698 209.941695,21.207737 209.754864,20.938716 L209.754864,20.938716 Z" id="Path"></path>
            </g>
        </g>
    </g>
</svg>